G04 DipTrace 4.2.0.1*
G04 geiger_shield2_Top.gbr*
%MOIN*%
G04 #@! TF.FileFunction,Copper,L1,Top*
G04 #@! TF.Part,Single*
%AMOUTLINE0*
4,1,28,
-0.02874,-0.005906,
-0.02874,0.005905,
-0.028526,0.007535,
-0.027896,0.009055,
-0.026895,0.010359,
-0.025591,0.01136,
-0.024072,0.01199,
-0.022441,0.012204,
0.022441,0.012205,
0.024071,0.011991,
0.02559,0.011361,
0.026895,0.01036,
0.027896,0.009056,
0.028525,0.007536,
0.02874,0.005906,
0.02874,-0.005905,
0.028526,-0.007535,
0.027896,-0.009055,
0.026895,-0.010359,
0.025591,-0.01136,
0.024072,-0.01199,
0.022441,-0.012204,
-0.022441,-0.012205,
-0.024071,-0.011991,
-0.02559,-0.011361,
-0.026895,-0.01036,
-0.027896,-0.009056,
-0.028525,-0.007536,
-0.02874,-0.005906,
0*%
%AMOUTLINE3*
4,1,28,
0.02874,0.005906,
0.02874,-0.005905,
0.028526,-0.007535,
0.027896,-0.009055,
0.026895,-0.010359,
0.025591,-0.01136,
0.024072,-0.01199,
0.022441,-0.012204,
-0.022441,-0.012205,
-0.024071,-0.011991,
-0.02559,-0.011361,
-0.026895,-0.01036,
-0.027896,-0.009056,
-0.028525,-0.007536,
-0.02874,-0.005906,
-0.02874,0.005905,
-0.028526,0.007535,
-0.027896,0.009055,
-0.026895,0.010359,
-0.025591,0.01136,
-0.024072,0.01199,
-0.022441,0.012204,
0.022441,0.012205,
0.024071,0.011991,
0.02559,0.011361,
0.026895,0.01036,
0.027896,0.009056,
0.028525,0.007536,
0.02874,0.005906,
0*%
%ADD14C,0.01*%
G04 #@! TA.AperFunction,Conductor*
%ADD13C,0.02*%
%ADD15C,0.03*%
G04 #@! TA.AperFunction,CopperBalancing*
%ADD16C,0.025*%
%ADD17C,0.013*%
G04 #@! TA.AperFunction,ComponentPad*
%ADD18R,0.059055X0.059055*%
%ADD19C,0.050394*%
%ADD20R,0.070866X0.062992*%
G04 #@! TA.AperFunction,ComponentPad*
%ADD21C,0.062992*%
%ADD22R,0.062992X0.070866*%
G04 #@! TA.AperFunction,ComponentPad*
%ADD23C,0.062598*%
%ADD24O,0.07874X0.177165*%
%ADD25O,0.177165X0.07874*%
%ADD26C,0.059055*%
%ADD27R,0.06X0.06*%
%ADD28C,0.074803*%
%ADD29R,0.025591X0.041339*%
%ADD30R,0.041339X0.025591*%
G04 #@! TA.AperFunction,ComponentPad*
%ADD31C,0.05*%
%ADD32C,0.06*%
%ADD68OUTLINE0*%
%ADD71OUTLINE3*%
%FSLAX26Y26*%
G04*
G70*
G90*
G75*
G01*
G04 Top*
%LPD*%
X1962992Y1493799D2*
D13*
Y1390256D1*
X1961318Y1388582D1*
X2131200D1*
X1968700D1*
Y1236127D1*
X2011127Y1193700D1*
X2431200D1*
X2531200Y1293700D1*
Y1556200D1*
X2581200Y1606200D1*
Y1688582D1*
X1793700Y1118700D2*
X1812451D1*
X1824951Y1106200D1*
X1579822D1*
Y1110472D1*
X2618700Y1226082D2*
Y1218700D1*
X2756200D1*
Y1226082D1*
X2018700Y549951D2*
X2118700D1*
Y556200D1*
X2168700Y606200D1*
X2568700D1*
X2718700Y756200D1*
Y806200D1*
X2943700Y1031200D1*
Y1206200D1*
X2906102Y1243798D1*
X2898424D1*
X2868798D1*
X2831200Y1206200D1*
X2756200D1*
Y1226082D1*
X1793700Y1118700D2*
X2543700D1*
X2618700Y1193700D1*
Y1226082D1*
X2718700Y818700D2*
Y806200D1*
X2018700Y549951D2*
Y518700D1*
X1968700Y468700D1*
X1456200D1*
X1156200Y768700D1*
Y2093700D1*
X1418700Y2356200D1*
X1768700D1*
X1826082Y2298818D1*
Y2281200D1*
X1793700Y1118700D2*
X1868700Y1193700D1*
Y1236318D1*
X1913582Y1281200D1*
X1962991Y1531201D2*
D14*
X1918700D1*
Y1456200D1*
D13*
X1893700Y1431200D1*
Y1381200D1*
Y1281200D1*
X1913582D1*
X1918700Y1531201D2*
D14*
Y1606200D1*
D13*
Y1631200D1*
X2068700D1*
X2093700Y1606200D1*
X2193700D1*
X2243700Y1556200D1*
Y1493700D1*
X2356200Y1381200D1*
Y1281200D1*
Y1268700D1*
X2368700D1*
X2468700Y1368700D1*
Y1568700D1*
X2407775Y1629625D1*
X2405413D1*
Y1644487D1*
X2393701Y1656199D1*
Y1776082D1*
X2156200Y1601082D2*
X2098818D1*
X2093700Y1606200D1*
X2361318Y1281200D2*
X2356200D1*
X1892322Y1685649D2*
X1918700Y1659271D1*
Y1631200D1*
X1743699Y1373818D2*
Y1381200D1*
X1893700D1*
X2131200Y1498818D2*
X2101082D1*
X2031298Y1568602D1*
X1962991D1*
X2023818Y1281200D2*
Y1268700D1*
X2131200D1*
X2206200D1*
Y1456392D1*
X2163773Y1498818D1*
X2131200D1*
Y1306204D2*
Y1268700D1*
X2238582D1*
X2251082Y1281200D1*
X2568700Y1943700D2*
Y1956200D1*
X2688088Y2075588D1*
Y2148126D1*
X1737499Y1768700D2*
X1706855D1*
X1606200Y1668045D1*
Y1444355D1*
X1563773Y1401928D1*
X1532578D1*
X2331200Y2068707D2*
X2293700Y2031207D1*
Y1981200D1*
X2268700Y1956200D1*
Y1943700D1*
X1737499Y1768700D2*
X1731200D1*
Y1968700D1*
X1918700Y2156200D1*
X2243707D1*
X2331200Y2068707D1*
X1968700Y1818696D2*
X2048823D1*
X2156200Y1711318D1*
X1968700Y1818696D2*
X1906196D1*
X1843700Y1756200D1*
Y1656200D1*
X1856200Y1643700D1*
Y1568601D1*
X1874408D1*
X1324901Y1768700D2*
Y1849901D1*
X1488090Y2013090D1*
X1568700D1*
X1793700Y1018700D2*
X1556200D1*
X1356200Y1218700D1*
Y1737401D1*
X1324901Y1768700D1*
X1393798Y785924D2*
Y831102D1*
X1206200Y1018700D1*
Y2031200D1*
X1481200Y2306200D1*
X1656200D1*
X1756200Y2206200D1*
X2293700D1*
X2418603Y2081297D1*
X2448426D1*
X1673818Y793700D2*
X1718700D1*
X1793700Y868700D1*
Y918700D1*
X1468602Y785924D2*
Y793700D1*
X1563582D1*
X2398818Y2281202D2*
X2448424Y2231596D1*
Y2156100D1*
X1931200Y2068693D2*
X1943707D1*
X2031200Y1981200D1*
Y1931200D1*
X2018700Y1918700D1*
X1956200D1*
X1943800Y1906300D1*
Y1873423D1*
X1845078Y1876751D2*
X1935849D1*
X1943800Y1868800D1*
Y1873423D1*
X2618700Y1336318D2*
Y1431200D1*
X2626082Y1438582D1*
Y1468699D1*
Y1501082D1*
X2806204Y1681204D1*
Y1955216D1*
X2892716D1*
X2924308Y1986808D1*
Y2148133D1*
X2736318Y1468701D2*
X2748819Y1456200D1*
X2806200D1*
X2898424Y1363976D1*
Y1318602D1*
X2756200Y1336318D2*
Y1468701D1*
X2736318D1*
X1818700Y549951D2*
D15*
Y568700D1*
X1956200Y706200D1*
X2131200D1*
X2038582Y2281200D2*
D13*
X1936318D1*
X2148818D2*
X2168700D1*
X2318700Y2431200D1*
Y2449951D1*
X2393699Y1886318D2*
X2323818D1*
X2268700Y1831200D1*
Y1818704D1*
Y1831200D2*
X2256200D1*
X2193700Y1893700D1*
Y2056200D1*
X2186318D1*
X2306987Y1531200D2*
X2318700D1*
X2405413Y1444487D1*
Y1432775D1*
X2093700Y2056200D2*
X2076082D1*
X2018603Y1873426D2*
Y1868700D1*
X2306987Y1531200D2*
Y1680413D1*
X2118700Y1868700D1*
X2080153D1*
X2023329D1*
X2018603Y1873426D1*
X2080153Y1868700D2*
Y2052129D1*
X2076082Y2056200D1*
X2538976Y2118701D2*
Y2221358D1*
X2543700Y2226082D1*
Y2336318D2*
Y2424951D1*
X2518700Y2449951D1*
X2581200Y1798818D2*
X2576082D1*
X2493700Y1881200D1*
Y1968700D1*
X2606200Y2081200D1*
Y2273818D1*
X2543700Y2336318D1*
X2988976Y1281200D2*
X2993700Y1276476D1*
Y1158863D1*
X2998818Y1153745D1*
Y1131201D1*
X2988976Y1281200D2*
Y1360924D1*
X2943700Y1406200D1*
Y1493700D1*
X3106200Y1656200D1*
Y2156200D1*
X2881200Y2381200D1*
X2756200D1*
X2718700Y2418700D1*
Y2449951D1*
X2418700D2*
Y2431200D1*
X2301085Y2313585D1*
Y2293701D1*
X2288582Y2281198D1*
X1431200Y876476D2*
D15*
X1256200Y1051476D1*
Y1959785D1*
X1545725Y2249310D1*
X1568700D1*
X1831200Y1306196D2*
Y1281200D1*
X1818700Y1268700D1*
X1668700D1*
Y1493798D1*
X1781200D1*
X1874409D1*
X1818700Y1268700D2*
X1532339D1*
X1468700Y1332339D1*
Y1756200D1*
X1668700Y1956200D1*
Y2185671D1*
X1605061Y2249310D1*
X1568700D1*
X2888582Y1131199D2*
X2881199D1*
X1874409Y1531199D2*
D14*
X1818700D1*
Y1506200D1*
X1781200D1*
D15*
Y1493798D1*
X1981198Y1963976D2*
X1826476D1*
X1793700Y1931200D1*
Y1843700D1*
X1806200Y1831200D1*
Y1706200D1*
X1781200Y1681200D1*
Y1506200D1*
X1743701Y1263582D2*
X1668700Y1268700D1*
X2888582Y1131199D2*
X2831199D1*
X2718700Y1018700D1*
X2618700D1*
X2531200Y931200D1*
Y818700D1*
Y706200D1*
X1431200Y876476D2*
Y731200D1*
X1493700Y668700D1*
X1743700D1*
X1893700Y818700D1*
X2531200D1*
X434709Y2480331D2*
D16*
X933146D1*
X2114663D2*
X2160744D1*
X2976655D2*
X3152709D1*
X434709Y2455462D2*
X927943D1*
X2114663D2*
X2160744D1*
X2976655D2*
X3152709D1*
X434709Y2430594D2*
X929917D1*
X2114663D2*
X2160744D1*
X2976655D2*
X3152709D1*
X434709Y2405725D2*
X939623D1*
X2114663D2*
X2160744D1*
X2976655D2*
X3152709D1*
X434709Y2380856D2*
X961010D1*
X1076390D2*
X2215055D1*
X2421670D2*
X2479844D1*
X2607550D2*
X2703241D1*
X2934850D2*
X3152709D1*
X434709Y2355987D2*
X2190187D1*
X2396802D2*
X2479844D1*
X2607550D2*
X2728109D1*
X2959718D2*
X3152709D1*
X434709Y2331119D2*
X1452821D1*
X1684591D2*
X1766162D1*
X2458739D2*
X2479844D1*
X2607550D2*
X2877979D1*
X2984585D2*
X3152709D1*
X434709Y2306250D2*
X1427935D1*
X1709459D2*
X1766162D1*
X2458739D2*
X2479844D1*
X2627071D2*
X2902847D1*
X3009453D2*
X3152709D1*
X434709Y2281381D2*
X1403068D1*
X1734327D2*
X1766162D1*
X2458739D2*
X2479844D1*
X2643829D2*
X2927715D1*
X3034321D2*
X3152709D1*
X434709Y2256512D2*
X1378200D1*
X1484824D2*
X1492545D1*
X2208733D2*
X2228655D1*
X2740322D2*
X2894181D1*
X3059189D2*
X3152709D1*
X434709Y2231644D2*
X1353332D1*
X1459956D2*
X1467677D1*
X2759861D2*
X2866245D1*
X3084056D2*
X3152709D1*
X434709Y2206775D2*
X1328464D1*
X1435088D2*
X1442809D1*
X2346439D2*
X2409996D1*
X2767307D2*
X2857202D1*
X2991421D2*
X3002318D1*
X3108924D2*
X3152709D1*
X434709Y2181906D2*
X1303597D1*
X1410221D2*
X1417942D1*
X1538704D2*
X1612093D1*
X1712132D2*
X1727191D1*
X2371307D2*
X2399320D1*
X2767899D2*
X2856503D1*
X2992103D2*
X3027186D1*
X3133792D2*
X3152709D1*
X434709Y2157037D2*
X1278729D1*
X1385335D2*
X1393074D1*
X1513836D2*
X1625280D1*
X1712132D2*
X1849251D1*
X2767899D2*
X2856521D1*
X2992103D2*
X3052054D1*
X3144611D2*
X3152709D1*
X434709Y2132169D2*
X1253861D1*
X1360467D2*
X1368206D1*
X1488968D2*
X1625280D1*
X1712132D2*
X1824384D1*
X2767899D2*
X2856521D1*
X2992103D2*
X3067771D1*
X3144629D2*
X3152709D1*
X434709Y2107300D2*
X1228993D1*
X1335599D2*
X1343338D1*
X1464101D2*
X1625280D1*
X1712132D2*
X1799516D1*
X1974159D2*
X2016167D1*
X2767899D2*
X2856521D1*
X2992103D2*
X3067771D1*
X3144629D2*
X3152709D1*
X434709Y2082431D2*
X1204126D1*
X1310732D2*
X1318471D1*
X1439215D2*
X1625280D1*
X1712132D2*
X1774648D1*
X1987920D2*
X2016167D1*
X2766123D2*
X2858638D1*
X2989986D2*
X3067771D1*
X3144629D2*
X3152709D1*
X434709Y2057562D2*
X1179258D1*
X1285864D2*
X1293603D1*
X1414347D2*
X1533076D1*
X1604318D2*
X1625280D1*
X1712132D2*
X1749781D1*
X2008141D2*
X2016167D1*
X2497529D2*
X2529257D1*
X2755896D2*
X2871287D1*
X2977337D2*
X3067771D1*
X3144629D2*
X3152709D1*
X434709Y2032693D2*
X1167811D1*
X1260996D2*
X1268735D1*
X1389480D2*
X1454382D1*
X1712132D2*
X1724913D1*
X1865483D2*
X1885907D1*
X2391294D2*
X2504389D1*
X2730472D2*
X2885874D1*
X2962732D2*
X3067771D1*
X3144629D2*
X3152709D1*
X434709Y2007825D2*
X1167775D1*
X1364612D2*
X1429514D1*
X1840616D2*
X1939985D1*
X2363843D2*
X2479521D1*
X2690604D2*
X2715819D1*
X2962732D2*
X3067771D1*
X3144629D2*
X3152709D1*
X434709Y1982956D2*
X1167775D1*
X1339744D2*
X1404646D1*
X1617757D2*
X1625280D1*
X2118574D2*
X2155272D1*
X2344124D2*
X2458224D1*
X2665736D2*
X2695383D1*
X2962535D2*
X3067771D1*
X3144629D2*
X3152709D1*
X434709Y1958087D2*
X1167775D1*
X1314876D2*
X1379779D1*
X1486385D2*
X1559146D1*
X1578248D2*
X1610209D1*
X2118574D2*
X2155272D1*
X2338186D2*
X2455282D1*
X2640869D2*
X2689264D1*
X2948899D2*
X3067771D1*
X3144629D2*
X3152709D1*
X434709Y1933218D2*
X1167775D1*
X1299626D2*
X1354911D1*
X1461517D2*
X1585341D1*
X2118574D2*
X2155272D1*
X2633261D2*
X2693014D1*
X2924031D2*
X2986421D1*
X3050989D2*
X3067771D1*
X3144629D2*
X3152709D1*
X434709Y1908350D2*
X1167775D1*
X1299626D2*
X1330043D1*
X1436649D2*
X1560474D1*
X2118574D2*
X2155272D1*
X2623268D2*
X2709019D1*
X2903380D2*
X2949784D1*
X3144629D2*
X3152709D1*
X434709Y1883481D2*
X1167775D1*
X1411782D2*
X1535606D1*
X1656350D2*
X1680775D1*
X2589483D2*
X2767779D1*
X2844637D2*
X2934371D1*
X3144629D2*
X3152709D1*
X434709Y1858612D2*
X1167775D1*
X1386914D2*
X1510738D1*
X1631482D2*
X1680775D1*
X2569603D2*
X2767779D1*
X2844637D2*
X2928199D1*
X3144629D2*
X3152709D1*
X434709Y1833743D2*
X1167775D1*
X1363320D2*
X1485870D1*
X1606615D2*
X1680775D1*
X2457554D2*
X2487846D1*
X2645067D2*
X2767779D1*
X2844637D2*
X2929258D1*
X3144629D2*
X3152709D1*
X434709Y1808875D2*
X1167775D1*
X1368146D2*
X1461003D1*
X1581747D2*
X1678210D1*
X2111954D2*
X2125219D1*
X2321177D2*
X2329848D1*
X2457554D2*
X2512714D1*
X2645067D2*
X2767779D1*
X2844637D2*
X2937888D1*
X3144629D2*
X3152709D1*
X434709Y1784006D2*
X1167775D1*
X1382536D2*
X1436171D1*
X1556879D2*
X1651871D1*
X2136822D2*
X2150087D1*
X2308474D2*
X2329848D1*
X2457554D2*
X2517343D1*
X2645067D2*
X2767779D1*
X2844637D2*
X2957283D1*
X3144629D2*
X3152709D1*
X434709Y1759137D2*
X1167775D1*
X1387309D2*
X1425387D1*
X1532012D2*
X1627003D1*
X1899950D2*
X2055083D1*
X2281560D2*
X2329848D1*
X2457554D2*
X2517343D1*
X2645067D2*
X2767779D1*
X2844637D2*
X3067771D1*
X3144629D2*
X3152709D1*
X434709Y1734268D2*
X1167775D1*
X1394629D2*
X1425280D1*
X1512132D2*
X1602135D1*
X1882134D2*
X2079951D1*
X2306446D2*
X2329848D1*
X2457554D2*
X2517343D1*
X2645067D2*
X2767779D1*
X2844637D2*
X3067771D1*
X3144629D2*
X3152709D1*
X434709Y1709399D2*
X1167775D1*
X1299626D2*
X1317771D1*
X1394629D2*
X1425280D1*
X1512132D2*
X1577267D1*
X1882134D2*
X2092349D1*
X2331314D2*
X2517343D1*
X2645067D2*
X2767779D1*
X2844637D2*
X3067771D1*
X3144629D2*
X3152709D1*
X434709Y1684531D2*
X1167775D1*
X1299626D2*
X1317771D1*
X1394629D2*
X1425280D1*
X1512132D2*
X1558697D1*
X1692970D2*
X1737903D1*
X1882134D2*
X2092349D1*
X2220055D2*
X2249558D1*
X2345183D2*
X2517343D1*
X2645067D2*
X2756224D1*
X2844637D2*
X3067771D1*
X3144629D2*
X3152709D1*
X434709Y1659662D2*
X1167775D1*
X1299626D2*
X1317771D1*
X1394629D2*
X1425280D1*
X1512132D2*
X1555773D1*
X1668102D2*
X1737777D1*
X1890889D2*
X2092349D1*
X2220055D2*
X2268558D1*
X2345416D2*
X2517343D1*
X2645067D2*
X2731357D1*
X2837460D2*
X3056360D1*
X3144629D2*
X3152709D1*
X434709Y1634793D2*
X1167775D1*
X1299626D2*
X1317771D1*
X1394629D2*
X1425280D1*
X1512132D2*
X1555773D1*
X1656637D2*
X1737777D1*
X1894621D2*
X2092349D1*
X2220055D2*
X2268558D1*
X2345416D2*
X2517343D1*
X2645067D2*
X2706489D1*
X2813095D2*
X3031492D1*
X3137560D2*
X3152709D1*
X434709Y1609924D2*
X1167775D1*
X1299626D2*
X1317771D1*
X1394629D2*
X1425280D1*
X1512132D2*
X1555773D1*
X1656637D2*
X1737777D1*
X1894621D2*
X2092349D1*
X2220055D2*
X2268558D1*
X2345416D2*
X2531625D1*
X2619625D2*
X2681621D1*
X2788227D2*
X3006624D1*
X3113230D2*
X3152709D1*
X434709Y1585056D2*
X1167775D1*
X1299626D2*
X1317771D1*
X1394629D2*
X1425280D1*
X1512132D2*
X1555773D1*
X1656637D2*
X1737777D1*
X2068157D2*
X2092349D1*
X2220055D2*
X2268558D1*
X2345416D2*
X2506757D1*
X2612736D2*
X2656753D1*
X2763359D2*
X2981756D1*
X3088362D2*
X3152709D1*
X434709Y1560187D2*
X1167775D1*
X1299626D2*
X1317771D1*
X1394629D2*
X1425280D1*
X1512132D2*
X1555773D1*
X1656637D2*
X1737777D1*
X2220055D2*
X2257219D1*
X2356756D2*
X2492996D1*
X2588496D2*
X2631886D1*
X2738492D2*
X2956889D1*
X3063495D2*
X3152709D1*
X434709Y1535318D2*
X1167775D1*
X1299626D2*
X1317771D1*
X1394629D2*
X1425280D1*
X1512132D2*
X1555773D1*
X1656637D2*
X1737777D1*
X2195062D2*
X2249181D1*
X2367880D2*
X2492781D1*
X2569621D2*
X2607018D1*
X2713624D2*
X2932003D1*
X3038627D2*
X3152709D1*
X434709Y1510449D2*
X1167775D1*
X1299626D2*
X1317771D1*
X1394629D2*
X1425280D1*
X1512132D2*
X1555773D1*
X2018314D2*
X2036136D1*
X2205450D2*
X2253056D1*
X2392765D2*
X2492781D1*
X2796247D2*
X2909414D1*
X3013759D2*
X3152709D1*
X434709Y1485581D2*
X1167775D1*
X1299626D2*
X1317771D1*
X1394629D2*
X1425280D1*
X1512132D2*
X1555773D1*
X2020072D2*
X2061022D1*
X2230318D2*
X2272954D1*
X2424846D2*
X2492781D1*
X2829368D2*
X2905269D1*
X2988892D2*
X3152709D1*
X434709Y1460712D2*
X1167775D1*
X1299626D2*
X1317771D1*
X1394629D2*
X1425280D1*
X2005234D2*
X2067338D1*
X2244366D2*
X2335877D1*
X2455814D2*
X2492781D1*
X2854990D2*
X2905269D1*
X2982127D2*
X3152709D1*
X434709Y1435843D2*
X1167775D1*
X1299626D2*
X1317771D1*
X1394629D2*
X1425280D1*
X1712132D2*
X1924572D1*
X2001413D2*
X2067338D1*
X2244618D2*
X2347539D1*
X2463278D2*
X2492781D1*
X2879857D2*
X2905269D1*
X2982127D2*
X3152709D1*
X434709Y1410974D2*
X1167775D1*
X1299626D2*
X1317771D1*
X1394629D2*
X1425280D1*
X1807566D2*
X1924572D1*
X2244618D2*
X2351917D1*
X2458900D2*
X2492781D1*
X2992229D2*
X3152709D1*
X434709Y1386106D2*
X1167775D1*
X1299626D2*
X1317771D1*
X1394629D2*
X1425280D1*
X1807566D2*
X1922976D1*
X2244618D2*
X2372963D1*
X2437854D2*
X2492781D1*
X2682566D2*
X2692350D1*
X3017096D2*
X3152709D1*
X434709Y1361237D2*
X1167775D1*
X1299626D2*
X1317771D1*
X1394629D2*
X1425280D1*
X1591615D2*
X1625280D1*
X1807566D2*
X1930278D1*
X2244618D2*
X2492781D1*
X2682566D2*
X2692350D1*
X2820056D2*
X2847855D1*
X3027395D2*
X3152709D1*
X434709Y1336368D2*
X1167775D1*
X1299626D2*
X1317771D1*
X1394629D2*
X1425280D1*
X1525050D2*
X1625280D1*
X2421240D2*
X2492781D1*
X2682566D2*
X2692350D1*
X2820056D2*
X2849326D1*
X3027395D2*
X3152709D1*
X434709Y1311499D2*
X1167775D1*
X1299626D2*
X1317771D1*
X1394629D2*
X1430985D1*
X1549918D2*
X1625280D1*
X2421240D2*
X2492781D1*
X2682566D2*
X2692350D1*
X2820056D2*
X2849326D1*
X3038071D2*
X3152709D1*
X434709Y1286630D2*
X1167775D1*
X1299626D2*
X1317771D1*
X1394629D2*
X1454023D1*
X2421240D2*
X2470819D1*
X2682566D2*
X2692350D1*
X2820056D2*
X2849326D1*
X3038071D2*
X3152709D1*
X434709Y1261762D2*
X1167775D1*
X1299626D2*
X1317771D1*
X1394629D2*
X1478909D1*
X2421240D2*
X2445952D1*
X2682566D2*
X2692350D1*
X2820056D2*
X2849326D1*
X3038071D2*
X3152709D1*
X434709Y1236893D2*
X1167775D1*
X1299626D2*
X1317771D1*
X1394629D2*
X1504082D1*
X2527708D2*
X2554842D1*
X2682566D2*
X2692350D1*
X2820056D2*
X2849326D1*
X2947517D2*
X2955274D1*
X3032132D2*
X3152709D1*
X434709Y1212024D2*
X1167775D1*
X1299626D2*
X1318399D1*
X1416177D2*
X1679842D1*
X1807566D2*
X1939554D1*
X2502822D2*
X2554842D1*
X2682566D2*
X2692350D1*
X2820056D2*
X2849326D1*
X2947517D2*
X2955274D1*
X3032132D2*
X3152709D1*
X434709Y1187155D2*
X1167775D1*
X1299626D2*
X1334439D1*
X1441045D2*
X1964368D1*
X2477955D2*
X2554842D1*
X2682566D2*
X2692350D1*
X2820056D2*
X2828657D1*
X3058740D2*
X3152709D1*
X434709Y1162287D2*
X1167775D1*
X1299626D2*
X1359307D1*
X1465913D2*
X1991191D1*
X2451131D2*
X2802084D1*
X3058740D2*
X3152709D1*
X434709Y1137418D2*
X1167775D1*
X1299626D2*
X1384175D1*
X1490781D2*
X2777037D1*
X3058740D2*
X3152709D1*
X434709Y1112549D2*
X1167775D1*
X1299626D2*
X1409042D1*
X1515648D2*
X2752169D1*
X3058740D2*
X3152709D1*
X434709Y1087680D2*
X1167775D1*
X1299626D2*
X1433910D1*
X1540534D2*
X2727302D1*
X3058740D2*
X3152709D1*
X434709Y1062812D2*
X1167775D1*
X1305241D2*
X1458778D1*
X1565402D2*
X1745762D1*
X1841638D2*
X2679432D1*
X2823196D2*
X3152709D1*
X434709Y1037943D2*
X1167775D1*
X1330109D2*
X1483645D1*
X1856530D2*
X2577557D1*
X2798329D2*
X3152709D1*
X434709Y1013074D2*
X1168223D1*
X1354977D2*
X1508513D1*
X1859275D2*
X2552689D1*
X2778341D2*
X3152709D1*
X434709Y988205D2*
X1183385D1*
X1379845D2*
X1534709D1*
X1851704D2*
X2527821D1*
X2769854D2*
X3152709D1*
X434709Y963336D2*
X1208252D1*
X1404712D2*
X1746282D1*
X1841118D2*
X2502954D1*
X2623716D2*
X2700963D1*
X2736428D2*
X3152709D1*
X434709Y938468D2*
X1233120D1*
X1429580D2*
X1731031D1*
X1856369D2*
X2488421D1*
X2598848D2*
X3152709D1*
X434709Y913599D2*
X1257988D1*
X1472426D2*
X1728071D1*
X1859329D2*
X2487775D1*
X2574627D2*
X3152709D1*
X434709Y888730D2*
X1282856D1*
X1472749D2*
X1735409D1*
X1851991D2*
X2487775D1*
X2574627D2*
X3152709D1*
X434709Y863861D2*
X1307741D1*
X1474633D2*
X1735552D1*
X1831806D2*
X2487775D1*
X2574627D2*
X3152709D1*
X434709Y838993D2*
X1332609D1*
X1474633D2*
X1503669D1*
X1817291D2*
X1853611D1*
X2574627D2*
X3152709D1*
X434709Y814124D2*
X1352578D1*
X1792423D2*
X1828744D1*
X2574627D2*
X2955346D1*
X3082047D2*
X3152709D1*
X434709Y789255D2*
X1352578D1*
X1767555D2*
X1803876D1*
X2574627D2*
X2936973D1*
X3100420D2*
X3152709D1*
X434709Y764386D2*
X1352578D1*
X1741970D2*
X1779008D1*
X1899771D2*
X2487775D1*
X2574627D2*
X2928953D1*
X3108440D2*
X3152709D1*
X434709Y739518D2*
X1352578D1*
X1733734D2*
X1754140D1*
X1874903D2*
X1929937D1*
X2189625D2*
X2472775D1*
X2589626D2*
X2928379D1*
X3109014D2*
X3152709D1*
X434709Y714649D2*
X1391280D1*
X1508131D2*
X1729273D1*
X1850035D2*
X1904280D1*
X2189625D2*
X2472775D1*
X2589626D2*
X2935125D1*
X3102286D2*
X3152709D1*
X434709Y689780D2*
X1412236D1*
X1825149D2*
X1879394D1*
X2189625D2*
X2472775D1*
X2589626D2*
X2951398D1*
X3086012D2*
X3152709D1*
X434709Y664911D2*
X1437104D1*
X1800282D2*
X1854526D1*
X1975289D2*
X2072774D1*
X2189625D2*
X2472775D1*
X2589626D2*
X2991930D1*
X3045463D2*
X3152709D1*
X434709Y640043D2*
X1461971D1*
X1775414D2*
X1829659D1*
X1950421D2*
X3152709D1*
X434709Y615174D2*
X906484D1*
X1030925D2*
X1804791D1*
X1925553D2*
X3152709D1*
X434709Y590305D2*
X887519D1*
X1049890D2*
X1460733D1*
X1976652D2*
X2160744D1*
X2276662D2*
X2360745D1*
X2976655D2*
X3152709D1*
X434709Y565436D2*
X879140D1*
X1058268D2*
X1460733D1*
X1976652D2*
X2160744D1*
X2276662D2*
X2360745D1*
X2976655D2*
X3152709D1*
X434709Y540567D2*
X878261D1*
X1059130D2*
X1460733D1*
X1976652D2*
X2160744D1*
X2276662D2*
X2360745D1*
X2976655D2*
X3152709D1*
X434709Y515699D2*
X884667D1*
X1052724D2*
X1460733D1*
X1976652D2*
X2160744D1*
X2276662D2*
X2360745D1*
X2976655D2*
X3152709D1*
X434709Y490830D2*
X900438D1*
X1036971D2*
X3152709D1*
X434709Y465961D2*
X938511D1*
X998880D2*
X3152709D1*
X434709Y441092D2*
X3152709D1*
X2872426Y605411D2*
X2974161D1*
Y494490D1*
X2363239D1*
Y605411D1*
X2872426D1*
X2473814Y2257012D2*
X2456240Y2274586D1*
Y2342560D1*
X2380865Y2342558D1*
X2432806Y2394498D1*
X2507774Y2394494D1*
X2507775Y2393739D1*
X2482342D1*
Y2243434D1*
X2172426Y605411D2*
X2274161D1*
Y494490D1*
X2163239D1*
Y605411D1*
X2172426D1*
X1056657Y540781D2*
X1055216Y531637D1*
X1052828Y522694D1*
X1049518Y514050D1*
X1045323Y505798D1*
X1040288Y498031D1*
X1034469Y490832D1*
X1027929Y484282D1*
X1020740Y478450D1*
X1012981Y473402D1*
X1004737Y469193D1*
X996098Y465869D1*
X987159Y463465D1*
X978018Y462010D1*
X968774Y461517D1*
X959530Y461994D1*
X950386Y463434D1*
X941443Y465823D1*
X932799Y469133D1*
X924548Y473328D1*
X916780Y478363D1*
X909582Y484182D1*
X903031Y490722D1*
X897200Y497911D1*
X892152Y505670D1*
X887942Y513914D1*
X884618Y522553D1*
X882215Y531492D1*
X880759Y540633D1*
X880267Y549876D1*
X880743Y559120D1*
X882184Y568264D1*
X884572Y577207D1*
X887882Y585852D1*
X892077Y594103D1*
X897112Y601870D1*
X902931Y609069D1*
X909471Y615620D1*
X916660Y621451D1*
X924419Y626499D1*
X932663Y630708D1*
X941302Y634033D1*
X950241Y636436D1*
X959382Y637892D1*
X968626Y638384D1*
X977870Y637907D1*
X987014Y636467D1*
X995957Y634079D1*
X1004601Y630769D1*
X1012852Y626573D1*
X1020620Y621538D1*
X1027818Y615719D1*
X1034369Y609179D1*
X1040200Y601991D1*
X1045248Y594232D1*
X1049458Y585988D1*
X1052782Y577349D1*
X1055185Y568410D1*
X1056641Y559268D1*
X1057133Y549951D1*
X1056657Y540781D1*
X3106657Y740781D2*
X3105216Y731637D1*
X3102828Y722694D1*
X3099518Y714050D1*
X3095323Y705798D1*
X3090288Y698031D1*
X3084469Y690832D1*
X3077929Y684282D1*
X3070740Y678450D1*
X3062981Y673402D1*
X3054737Y669193D1*
X3046098Y665869D1*
X3037159Y663465D1*
X3028018Y662010D1*
X3018774Y661517D1*
X3009530Y661994D1*
X3000386Y663434D1*
X2991443Y665823D1*
X2982799Y669133D1*
X2974548Y673328D1*
X2966780Y678363D1*
X2959582Y684182D1*
X2953031Y690722D1*
X2947200Y697911D1*
X2942152Y705670D1*
X2937942Y713914D1*
X2934618Y722553D1*
X2932215Y731492D1*
X2930759Y740633D1*
X2930267Y749876D1*
X2930743Y759120D1*
X2932184Y768264D1*
X2934572Y777207D1*
X2937882Y785852D1*
X2942077Y794103D1*
X2947112Y801870D1*
X2952931Y809069D1*
X2959471Y815620D1*
X2966660Y821451D1*
X2974419Y826499D1*
X2982663Y830708D1*
X2991302Y834033D1*
X3000241Y836436D1*
X3009382Y837892D1*
X3018626Y838384D1*
X3027870Y837907D1*
X3037014Y836467D1*
X3045957Y834079D1*
X3054601Y830769D1*
X3062852Y826573D1*
X3070620Y821538D1*
X3077818Y815719D1*
X3084369Y809179D1*
X3090200Y801991D1*
X3095248Y794232D1*
X3099458Y785988D1*
X3102782Y777349D1*
X3105185Y768410D1*
X3106641Y759268D1*
X3107133Y749951D1*
X3106657Y740781D1*
X1597681Y1368048D2*
X1627775Y1398135D1*
X1627778Y1309626D1*
X1549289Y1309628D1*
X1518336Y1340575D1*
X1521149Y1339841D1*
X1530311Y1338839D1*
X1539521Y1339181D1*
X1548583Y1340861D1*
X1557304Y1343842D1*
X1565498Y1348061D1*
X1572990Y1353428D1*
X1574939Y1355310D1*
X1576414Y1355692D1*
X1584990Y1358946D1*
X1592795Y1363780D1*
X1597681Y1368048D1*
X1509632Y1460590D2*
X1512158Y1461665D1*
X1521074Y1464001D1*
X1530234Y1465015D1*
X1539445Y1464684D1*
X1548509Y1463015D1*
X1554890Y1460843D1*
X1558263Y1464207D1*
X1558267Y1668045D1*
X1559144Y1677175D1*
X1561745Y1685971D1*
X1565973Y1694111D1*
X1571681Y1701302D1*
X1643554Y1773187D1*
X1672961Y1802594D1*
X1680045Y1808434D1*
X1683269Y1811489D1*
X1683267Y1912886D1*
X1509629Y1739251D1*
X1509626Y1460746D1*
X2193661Y1229625D2*
Y1232773D1*
X2081245Y1232775D1*
X2081240Y1229622D1*
X2193660Y1229626D1*
X2149592Y1768739D2*
X2167857D1*
X2103824Y1832769D1*
X2085550Y1832775D1*
X2149583Y1768742D1*
X1881588Y1669118D2*
X1879626Y1671083D1*
X1879632Y1741325D1*
X1921082Y1782770D1*
X1932731Y1782771D1*
X1933475Y1781918D1*
X1940608Y1776219D1*
X1948644Y1771886D1*
X1957325Y1769057D1*
X1966371Y1767823D1*
X1975492Y1768225D1*
X1984395Y1770249D1*
X1992793Y1773830D1*
X2000417Y1778853D1*
X2004792Y1782770D1*
X2033936Y1782776D1*
X2094842Y1721870D1*
X2094840Y1556240D1*
X2094468Y1556238D1*
X2056232Y1594466D1*
X2048880Y1599931D1*
X2040384Y1603360D1*
X2031298Y1604528D1*
X1997141D1*
X1989907Y1606420D1*
X1985410Y1606733D1*
X1940549Y1606732D1*
X1938526Y1606669D1*
X1929563Y1604802D1*
X1921481Y1600483D1*
X1914242Y1601635D1*
X1905911Y1605431D1*
X1896848Y1606732D1*
X1892126Y1606727D1*
X1892117Y1644490D1*
X1890749Y1653549D1*
X1887129Y1661974D1*
X1881588Y1669118D1*
X1744774Y1699869D2*
X1744498Y1699822D1*
X1735255Y1699504D1*
X1726052Y1700420D1*
X1717053Y1702555D1*
X1710873Y1704929D1*
X1654130Y1648187D1*
X1654133Y1532045D1*
X1659627Y1533705D1*
X1668700Y1534723D1*
X1740271D1*
X1740275Y1681200D1*
X1741301Y1690309D1*
X1744335Y1698969D1*
X1744774Y1699869D1*
X2206240Y2267928D2*
Y2242128D1*
X2231159Y2242126D1*
X2231160Y2292855D1*
X2206245Y2267938D1*
X2411015Y2194821D2*
X2412496D1*
X2412498Y2216717D1*
X2409366Y2219847D1*
X2330869Y2219840D1*
X2401832Y2148875D1*
X2401829Y2194821D1*
X2411015D1*
X2823005Y1171295D2*
X2821205Y1170885D1*
X2819434Y1170397D1*
X2817559Y1169784D1*
Y1393739D1*
X2792125Y1393748D1*
X2792134Y1407343D1*
X2793740D1*
X2793744Y1417850D1*
X2854279Y1357322D1*
X2851830D1*
Y1205077D1*
X2945019D1*
X2945026Y1242479D1*
X2957775Y1242486D1*
X2957769Y1192560D1*
X2831161Y1192557D1*
Y1172119D1*
X2823005Y1171295D1*
X1905079Y1912672D2*
Y1920018D1*
X1910597D1*
X1905079Y1912672D1*
X1942478Y2004893D2*
Y2010570D1*
X1951027D1*
X1946649Y2014945D1*
X1944988Y2014493D1*
X1935879Y2012963D1*
X1926642Y2012953D1*
X1917530Y2014464D1*
X1908791Y2017453D1*
X1900663Y2021841D1*
X1893367Y2027506D1*
X1887104Y2034295D1*
X1882044Y2042022D1*
X1879069Y2048784D1*
X1835187Y2004899D1*
X1942482Y2004901D1*
X2004622Y1342558D2*
X2069842D1*
Y1352664D1*
X2004625Y1352656D1*
X2004626Y1342550D1*
X2081240Y1331156D2*
Y1316067D1*
X2081705Y1318188D1*
X2082169Y1319966D1*
X2082697Y1321725D1*
X2083289Y1323464D1*
X2083942Y1325181D1*
X2084658Y1326874D1*
X2085434Y1328539D1*
X2086269Y1330175D1*
X2086818Y1331161D1*
X2081237Y1331160D1*
X2263270Y2068569D2*
X2263282Y2068840D1*
X2243740Y2088379D1*
Y2001464D1*
X2244143Y2001462D1*
X2245766Y2002152D1*
X2245767Y2031207D1*
X2246644Y2040338D1*
X2249245Y2049133D1*
X2253473Y2057273D1*
X2259181Y2064464D1*
X2263270Y2068565D1*
X1970519Y2108268D2*
X1975296Y2103091D1*
X1980356Y2095364D1*
X1984076Y2086909D1*
X1986353Y2077958D1*
X1986455Y2076744D1*
X2018654Y2044552D1*
X2018660Y2108262D1*
X1970724Y2108267D1*
X2128901Y1994841D2*
X2116073D1*
X2116078Y1904633D1*
X2118700Y1904625D1*
X2127787Y1903457D1*
X2136282Y1900029D1*
X2143640Y1894556D1*
X2162756Y1875451D1*
X2161872Y1877038D1*
X2161062Y1878687D1*
X2160337Y1880375D1*
X2159699Y1882098D1*
X2159151Y1883851D1*
X2158692Y1885630D1*
X2157774Y1893700D1*
Y1994834D1*
X2128897Y1994850D1*
X2232019Y1994841D2*
X2229624D1*
X2229626Y1993035D1*
X2229827Y1993007D1*
X2232032Y1994843D1*
X2015921Y1514861D2*
X2016774Y1517804D1*
X2017344Y1520811D1*
X2017625Y1523862D1*
X2017657Y1525315D1*
X2017663Y1531431D1*
X2069842Y1479245D1*
X2069834Y1424507D1*
X1998918Y1424499D1*
Y1457612D1*
X2002984Y1460868D1*
X2009876Y1466895D1*
X2014795Y1474616D1*
X2017344Y1483419D1*
X2017658Y1487912D1*
X2017657Y1499893D1*
X2016300Y1508956D1*
X2015921Y1514861D1*
X1917369Y1463046D2*
X1909545Y1458274D1*
X1900703Y1455899D1*
X1896851Y1455668D1*
X1889272D1*
X1883482Y1453890D1*
X1874409Y1452872D1*
X1709625Y1452871D1*
X1709628Y1431239D1*
X1805058D1*
Y1349899D1*
X1811226Y1353040D1*
X1819911Y1355854D1*
X1828959Y1357072D1*
X1838080Y1356654D1*
X1846979Y1354615D1*
X1855371Y1351019D1*
X1862986Y1345983D1*
X1866560Y1342560D1*
X1932776Y1342558D1*
X1932774Y1366773D1*
X1930653Y1369866D1*
X1926916Y1378231D1*
X1925417Y1387269D1*
X1926255Y1396400D1*
X1927066Y1408071D1*
Y1458623D1*
X1923152Y1460771D1*
X1917369Y1463046D1*
X2340914Y1972931D2*
X2338472Y1964081D1*
X2334386Y1955859D1*
X2331084Y1951199D1*
X2331633Y1943700D1*
X2330964Y1934546D1*
X2328968Y1925578D1*
X2327696Y1922251D1*
X2332344Y1922244D1*
X2328186D1*
X2332340Y1922240D1*
Y1943739D1*
X2455057D1*
X2455060Y1718660D1*
X2332343D1*
X2332340Y1844031D1*
X2318347Y1830040D1*
X2318815Y1827754D1*
X2319625Y1818704D1*
X2318799Y1809568D1*
X2316363Y1800769D1*
X2312394Y1792547D1*
X2307021Y1785165D1*
X2300417Y1778862D1*
X2292793Y1773839D1*
X2284395Y1770258D1*
X2275492Y1768234D1*
X2270210Y1768001D1*
X2332391Y1705816D1*
X2337990Y1698565D1*
X2341573Y1690133D1*
X2342906Y1681060D1*
X2342913Y1573437D1*
X2344557Y1571986D1*
X2350758Y1565246D1*
X2355765Y1557577D1*
X2359441Y1549189D1*
X2361687Y1540310D1*
X2361804Y1538896D1*
X2413002Y1487704D1*
X2419042Y1486527D1*
X2427704Y1483550D1*
X2435757Y1479189D1*
X2442983Y1473561D1*
X2449183Y1466821D1*
X2454190Y1459152D1*
X2457867Y1450764D1*
X2460112Y1441885D1*
X2460866Y1432775D1*
X2460106Y1423630D1*
X2457855Y1414753D1*
X2454174Y1406367D1*
X2449162Y1398701D1*
X2442957Y1391965D1*
X2435728Y1386342D1*
X2427672Y1381985D1*
X2419009Y1379014D1*
X2409975Y1377510D1*
X2400816Y1377513D1*
X2391783Y1379023D1*
X2383121Y1381999D1*
X2375068Y1386361D1*
X2367843Y1391988D1*
X2361642Y1398729D1*
X2356635Y1406397D1*
X2352959Y1414786D1*
X2350713Y1423665D1*
X2349960Y1432792D1*
X2350719Y1441919D1*
X2352027Y1447078D1*
X2321437Y1477656D1*
X2320583Y1477440D1*
X2311549Y1475935D1*
X2302391Y1475938D1*
X2293358Y1477448D1*
X2284696Y1480425D1*
X2276643Y1484786D1*
X2269417Y1490414D1*
X2263217Y1497154D1*
X2258210Y1504823D1*
X2254533Y1513211D1*
X2252288Y1522090D1*
X2251534Y1531217D1*
X2252294Y1540344D1*
X2254545Y1549222D1*
X2258226Y1557608D1*
X2263238Y1565274D1*
X2269443Y1572010D1*
X2271060Y1573267D1*
X2271062Y1665537D1*
X2217563Y1719030D1*
X2217559Y1543660D1*
X2192556D1*
X2192559Y1520831D1*
X2231603Y1481795D1*
X2237202Y1474544D1*
X2240785Y1466112D1*
X2242119Y1457039D1*
X2242126Y1342557D1*
X2308504Y1342549D1*
X2331456Y1342558D1*
X2418740D1*
Y1232044D1*
X2495280Y1308586D1*
X2495274Y1556183D1*
X2495997Y1563367D1*
X2498954Y1572038D1*
X2504008Y1579679D1*
X2505797Y1581603D1*
X2545280Y1621087D1*
X2545268Y1631160D1*
X2519842D1*
X2519841Y1804257D1*
X2468312Y1855782D1*
X2463739Y1861376D1*
X2459699Y1869598D1*
X2457870Y1878575D1*
X2457774Y1881200D1*
Y1968674D1*
X2458497Y1975867D1*
X2461454Y1984538D1*
X2466509Y1992179D1*
X2468297Y1994103D1*
X2554181Y2079980D1*
X2495021D1*
Y2042576D1*
X2401831D1*
Y2049529D1*
X2401013Y2049973D1*
X2397066Y2052535D1*
X2396639Y2050468D1*
X2393546Y2041728D1*
X2389292Y2033490D1*
X2383955Y2025907D1*
X2377636Y2019123D1*
X2370452Y2013261D1*
X2362536Y2008433D1*
X2354037Y2004728D1*
X2345112Y2002214D1*
X2341641Y2001732D1*
X2341633Y1981224D1*
X2340914Y1972931D1*
X1709627Y2014915D2*
X1864991Y2170279D1*
X1756200Y2170274D1*
X1747113Y2171443D1*
X1738618Y2174871D1*
X1731260Y2180344D1*
X1701653Y2209940D1*
X1703354Y2207443D1*
X1704296Y2205865D1*
X1705167Y2204248D1*
X1705964Y2202592D1*
X1706685Y2200903D1*
X1707331Y2199183D1*
X1707898Y2197436D1*
X1709533Y2188407D1*
X1709626Y2176845D1*
Y2014909D1*
X1326245Y1198869D2*
X1322199Y1207098D1*
X1320371Y1216075D1*
X1320275Y1218700D1*
X1320281Y1711804D1*
X1313487Y1712625D1*
X1304639Y1715182D1*
X1297122Y1718744D1*
X1297126Y1068427D1*
X1442484Y923069D1*
X1469921Y923070D1*
Y889725D1*
X1471869Y881041D1*
X1472126Y876431D1*
Y832519D1*
X1506161D1*
X1506160Y855059D1*
X1729256D1*
X1748594Y874401D1*
X1743618Y879943D1*
X1738509Y887648D1*
X1734576Y896015D1*
X1731903Y904865D1*
X1730547Y914011D1*
X1730537Y923256D1*
X1731873Y932404D1*
X1734528Y941260D1*
X1738443Y949635D1*
X1743536Y957351D1*
X1749698Y964243D1*
X1754947Y968620D1*
X1749795Y973064D1*
X1743618Y979943D1*
X1741737Y982780D1*
X1556200Y982774D1*
X1547113Y983942D1*
X1538618Y987371D1*
X1531260Y992844D1*
X1388137Y1135957D1*
X1330813Y1193281D1*
X1326245Y1198869D1*
X1242125Y2016317D2*
Y2003596D1*
X1486889Y2248352D1*
X1508806Y2270268D1*
X1496082Y2270274D1*
X1242123Y2016317D1*
X1665149Y2340992D2*
X1673666Y2337594D1*
X1681039Y2332156D1*
X1707340Y2305866D1*
X1768661Y2244544D1*
Y2342558D1*
X1993740Y2342549D1*
X2017906Y2342558D1*
X2179250Y2342559D1*
X2231181Y2394490D1*
X2163239D1*
Y2505199D1*
X2112161Y2505205D1*
Y2394490D1*
X1101239Y2394489D1*
Y2418200D1*
X1099518Y2414050D1*
X1095323Y2405798D1*
X1090288Y2398031D1*
X1084469Y2390832D1*
X1077929Y2384282D1*
X1070740Y2378450D1*
X1062981Y2373402D1*
X1054737Y2369193D1*
X1046098Y2365869D1*
X1037159Y2363465D1*
X1028018Y2362010D1*
X1018774Y2361517D1*
X1009530Y2361994D1*
X1000386Y2363434D1*
X991443Y2365823D1*
X982799Y2369133D1*
X974548Y2373328D1*
X966780Y2378363D1*
X959582Y2384182D1*
X953031Y2390722D1*
X947200Y2397911D1*
X942152Y2405670D1*
X937942Y2413914D1*
X934618Y2422553D1*
X932215Y2431492D1*
X930759Y2440633D1*
X930267Y2449876D1*
X930743Y2459120D1*
X932184Y2468264D1*
X934572Y2477207D1*
X937882Y2485852D1*
X942077Y2494103D1*
X947112Y2501870D1*
X949800Y2505195D1*
X432194Y2505200D1*
X432200Y2288026D1*
Y432194D1*
X676891Y432200D1*
X3155206D1*
X3155200Y649374D1*
Y2505206D1*
X2974158Y2505200D1*
X2974161Y2394490D1*
X2918711D1*
X3131603Y2181603D1*
X3137202Y2174352D1*
X3140785Y2165920D1*
X3142119Y2156848D1*
X3142126Y1963214D1*
Y1656200D1*
X3140957Y1647113D1*
X3137529Y1638618D1*
X3132056Y1631260D1*
X2995439Y1494632D1*
X2979624Y1478818D1*
X2979625Y1421085D1*
X3014379Y1386328D1*
X3019978Y1379076D1*
X3023561Y1370645D1*
X3024894Y1361572D1*
X3024901Y1319912D1*
X3035571Y1319920D1*
Y1242479D1*
X3029623D1*
X3029625Y1192565D1*
X3056240Y1192560D1*
Y1069842D1*
X2831161Y1069840D1*
Y1073276D1*
X2776082Y1018209D1*
X2775388Y1009553D1*
X2773187Y1000578D1*
X2769574Y992072D1*
X2764644Y984256D1*
X2758524Y977332D1*
X2751372Y971480D1*
X2743375Y966850D1*
X2734738Y963564D1*
X2725686Y961705D1*
X2716452Y961322D1*
X2707278Y962426D1*
X2698399Y964987D1*
X2690045Y968939D1*
X2682434Y974180D1*
X2678688Y977770D1*
X2635647Y977774D1*
X2572124Y914247D1*
X2572126Y762128D1*
X2587126Y762125D1*
Y650274D1*
X2475275D1*
Y762125D1*
X2490283D1*
X2490274Y777771D1*
X1910653Y777774D1*
X1772639Y639761D1*
X1765471Y634046D1*
X1757212Y630069D1*
X1748265Y628031D1*
X1743674Y627774D1*
X1493700D1*
X1484591Y628801D1*
X1475938Y631830D1*
X1468171Y636714D1*
X1464743Y639780D1*
X1402261Y702261D1*
X1396546Y709429D1*
X1392569Y717688D1*
X1390531Y726635D1*
X1390274Y731222D1*
X1390275Y739330D1*
X1355078D1*
Y819019D1*
X1180814Y993279D1*
X1176239Y998876D1*
X1172199Y1007098D1*
X1170371Y1016075D1*
X1170275Y1018700D1*
Y2031179D1*
X1170997Y2038368D1*
X1173954Y2047038D1*
X1179009Y2054679D1*
X1180797Y2056603D1*
X1455782Y2331589D1*
X1461376Y2336161D1*
X1469598Y2340201D1*
X1478575Y2342030D1*
X1481200Y2342126D1*
X1656178D1*
X1665149Y2340992D1*
X2907775Y1493674D2*
X2907785Y1405421D1*
X2831603Y1481603D1*
X2829679Y1483392D1*
X2822038Y1488446D1*
X2813358Y1491404D1*
X2806180Y1492126D1*
X2793740Y1492121D1*
Y1530060D1*
X2705872Y1530065D1*
X2832067Y1656269D1*
X2837533Y1663621D1*
X2840961Y1672117D1*
X2842129Y1681204D1*
Y1889921D1*
X2855418Y1889922D1*
X2858449Y1889992D1*
X2867566Y1891062D1*
X2876442Y1893399D1*
X2884902Y1896959D1*
X2892780Y1901669D1*
X2899920Y1907437D1*
X2906180Y1914150D1*
X2911437Y1921674D1*
X2913638Y1926016D1*
X2918119Y1929813D1*
X2950172Y1961874D1*
X2955637Y1969226D1*
X2959066Y1977722D1*
X2960234Y1986808D1*
X2960241Y2044417D1*
X2960420Y2044519D1*
X2967692Y2050120D1*
X2974106Y2056685D1*
X2979537Y2064085D1*
X2983876Y2072174D1*
X2987038Y2080791D1*
X2988960Y2089766D1*
X2989605Y2098922D1*
X2989602Y2197347D1*
X2989044Y2205867D1*
X2987209Y2214861D1*
X2986692Y2216623D1*
X2986124Y2218371D1*
X2985508Y2220102D1*
X2984844Y2221814D1*
X2984132Y2223508D1*
X2983372Y2225181D1*
X2982565Y2226831D1*
X2981713Y2228459D1*
X2980815Y2230062D1*
X2979731Y2231863D1*
X3070274Y2141310D1*
X3070278Y1921760D1*
X3062852Y1926573D1*
X3054601Y1930769D1*
X3045957Y1934079D1*
X3037014Y1936467D1*
X3027870Y1937907D1*
X3018626Y1938384D1*
X3009382Y1937892D1*
X3000241Y1936436D1*
X2991302Y1934033D1*
X2982663Y1930708D1*
X2974419Y1926499D1*
X2966660Y1921451D1*
X2959471Y1915620D1*
X2952931Y1909069D1*
X2947112Y1901870D1*
X2942077Y1894103D1*
X2937882Y1885852D1*
X2934572Y1877207D1*
X2932184Y1868264D1*
X2930743Y1859120D1*
X2930267Y1849876D1*
X2930759Y1840633D1*
X2932215Y1831492D1*
X2934618Y1822553D1*
X2937942Y1813914D1*
X2942152Y1805670D1*
X2947200Y1797911D1*
X2953031Y1790722D1*
X2959582Y1784182D1*
X2966780Y1778363D1*
X2974548Y1773328D1*
X2982799Y1769133D1*
X2991443Y1765823D1*
X3000386Y1763434D1*
X3009530Y1761994D1*
X3018774Y1761517D1*
X3028018Y1762010D1*
X3037159Y1763465D1*
X3046098Y1765869D1*
X3054737Y1769193D1*
X3062981Y1773402D1*
X3070278Y1778150D1*
X3070276Y1671082D1*
X2918297Y1519103D1*
X2916509Y1517179D1*
X2911454Y1509538D1*
X2908496Y1500859D1*
X2907775Y1493674D1*
X1930700Y738209D2*
X1938472Y743087D1*
X1947127Y746107D1*
X1956200Y747125D1*
X2075275Y747117D1*
Y762125D1*
X2187126D1*
Y650274D1*
X2075275D1*
Y665283D1*
X1973145Y665275D1*
X1913289Y605411D1*
X1974161D1*
Y494490D1*
X1774153Y494498D1*
X1728229Y494490D1*
X1463239D1*
Y605411D1*
X1797525Y605404D1*
X1927244Y735122D1*
X1930700Y738209D1*
X2332341Y1844034D2*
X2318347Y1830040D1*
X2749041Y2345996D2*
X2740362Y2348954D1*
X2732721Y2354009D1*
X2730797Y2355797D1*
X2693312Y2393281D1*
X2692149Y2394498D1*
X2619043Y2394490D1*
X2579633D1*
X2579626Y2393739D1*
X2605059D1*
Y2325766D1*
X2631603Y2299221D1*
X2637202Y2291970D1*
X2640786Y2283539D1*
X2642119Y2274466D1*
X2642126Y2259492D1*
X2644669Y2261297D1*
X2646201Y2262311D1*
X2647757Y2263288D1*
X2649336Y2264228D1*
X2657539Y2268350D1*
X2666173Y2271471D1*
X2675117Y2273546D1*
X2684243Y2274546D1*
X2693423Y2274457D1*
X2702529Y2273281D1*
X2711430Y2271033D1*
X2720002Y2267746D1*
X2728124Y2263465D1*
X2735682Y2258252D1*
X2742568Y2252180D1*
X2748685Y2245334D1*
X2753948Y2237811D1*
X2758282Y2229717D1*
X2761625Y2221167D1*
X2763932Y2212280D1*
X2765168Y2203183D1*
X2765390Y2197341D1*
X2765393Y2098915D1*
X2764848Y2089751D1*
X2763220Y2080715D1*
X2760533Y2071936D1*
X2756823Y2063538D1*
X2752145Y2055639D1*
X2746563Y2048350D1*
X2740156Y2041774D1*
X2733014Y2036004D1*
X2725239Y2031122D1*
X2716940Y2027195D1*
X2708234Y2024281D1*
X2703607Y2023322D1*
X2631215Y1950927D1*
X2631633Y1943700D1*
X2630964Y1934546D1*
X2628968Y1925578D1*
X2625687Y1916996D1*
X2621192Y1908983D1*
X2615577Y1901710D1*
X2608964Y1895333D1*
X2601493Y1889985D1*
X2593322Y1885783D1*
X2584627Y1882815D1*
X2575593Y1881145D1*
X2566411Y1880808D1*
X2557278Y1881812D1*
X2548389Y1884134D1*
X2546659Y1884753D1*
X2544948Y1885421D1*
X2543257Y1886139D1*
X2541587Y1886906D1*
X2539941Y1887722D1*
X2538319Y1888585D1*
X2536724Y1889496D1*
X2535411Y1890296D1*
X2569462Y1856245D1*
X2642559Y1856240D1*
Y1631160D1*
X2617126D1*
Y1606200D1*
X2615958Y1597113D1*
X2612529Y1588618D1*
X2607056Y1581260D1*
X2567120Y1541313D1*
X2567126Y1393731D1*
X2582775Y1393739D1*
X2582774Y1407339D1*
X2568661Y1407340D1*
Y1530057D1*
X2604249D1*
X2770272Y1696079D1*
X2770278Y1889916D1*
X2756993Y1889919D1*
X2747837Y1890564D1*
X2738862Y1892486D1*
X2730245Y1895648D1*
X2722156Y1899987D1*
X2714756Y1905417D1*
X2708191Y1911832D1*
X2702589Y1919104D1*
X2698063Y1927089D1*
X2694702Y1935630D1*
X2692571Y1944558D1*
X2691713Y1953696D1*
X2692145Y1962865D1*
X2693859Y1971882D1*
X2696820Y1980570D1*
X2700970Y1988757D1*
X2706227Y1996282D1*
X2712487Y2002994D1*
X2719627Y2008763D1*
X2727505Y2013473D1*
X2735965Y2017032D1*
X2744842Y2019370D1*
X2753958Y2020439D1*
X2756989Y2020510D1*
X2855414Y2020513D1*
X2864570Y2019868D1*
X2873546Y2017946D1*
X2882162Y2014784D1*
X2888379Y2011449D1*
X2888383Y2044403D1*
X2883242Y2048156D1*
X2876530Y2054416D1*
X2870761Y2061556D1*
X2866051Y2069434D1*
X2862492Y2077895D1*
X2860154Y2086771D1*
X2859084Y2095887D1*
X2859014Y2098918D1*
X2859011Y2197343D1*
X2859656Y2206499D1*
X2861578Y2215475D1*
X2864740Y2224092D1*
X2869079Y2232180D1*
X2874510Y2239580D1*
X2880924Y2246146D1*
X2888196Y2251747D1*
X2896181Y2256273D1*
X2904722Y2259635D1*
X2913650Y2261765D1*
X2922789Y2262623D1*
X2931957Y2262191D1*
X2940975Y2260478D1*
X2949663Y2257516D1*
X2951346Y2256779D1*
X2953007Y2255995D1*
X2954646Y2255164D1*
X2956260Y2254288D1*
X2957850Y2253366D1*
X2958837Y2252756D1*
X2866322Y2345272D1*
X2756217Y2345274D1*
X2749041Y2345996D1*
X1912021Y1923050D2*
X1866307D1*
X1869311Y1921765D1*
X1876959Y1916715D1*
X1881183Y1912675D1*
X1905084Y1912677D1*
X1856165Y1248288D2*
X1853889Y1246011D1*
X1856160Y1248283D1*
Y1219841D1*
X1934258D1*
X1937698Y1217974D1*
X1943297Y1210723D1*
X1986192Y1167837D1*
X1993544Y1162371D1*
X2002040Y1158943D1*
X2011127Y1157774D1*
X2431857Y1157780D1*
X2440920Y1159114D1*
X2449352Y1162698D1*
X2456603Y1168297D1*
X2557342Y1269055D1*
Y1168660D1*
X2680059D1*
Y1393739D1*
X2654626Y1393731D1*
Y1407340D1*
X2720275Y1407342D1*
Y1393739D1*
X2694842D1*
Y1168660D1*
X2814497D1*
X2814278Y1168462D1*
X2812622Y1167665D1*
X2811005Y1166795D1*
X2809427Y1165853D1*
X2802260Y1160137D1*
X2718118Y1076002D1*
X2716323Y1076072D1*
X2707151Y1074948D1*
X2698278Y1072367D1*
X2689933Y1068396D1*
X2682334Y1063138D1*
X2678687Y1059627D1*
X2618724Y1059626D1*
X2614126Y1059369D1*
X2605188Y1057331D1*
X2596929Y1053354D1*
X2589761Y1047639D1*
X2502280Y960157D1*
X2499208Y956723D1*
X2494330Y948962D1*
X2491301Y940309D1*
X2490274Y931200D1*
X2490276Y859626D1*
X1893700D1*
X1884627Y858607D1*
X1875972Y855587D1*
X1868200Y850709D1*
X1864746Y847623D1*
X1726752Y709626D1*
X1510647Y709630D1*
X1480957Y739330D1*
X1506160D1*
Y732341D1*
X1731240D1*
Y760028D1*
X1736852Y762698D1*
X1744103Y768297D1*
X1819563Y843765D1*
X1825029Y851118D1*
X1828457Y859613D1*
X1829572Y866705D1*
X1834260Y870067D1*
X1840909Y876491D1*
X1846552Y883814D1*
X1851068Y891881D1*
X1854361Y900520D1*
X1856362Y909546D1*
X1857027Y918767D1*
X1856342Y927987D1*
X1854323Y937009D1*
X1851011Y945640D1*
X1846478Y953698D1*
X1840819Y961009D1*
X1834157Y967419D1*
X1832462Y968778D1*
X1834260Y970067D1*
X1840909Y976491D1*
X1846552Y983814D1*
X1851068Y991881D1*
X1854361Y1000520D1*
X1856362Y1009546D1*
X1857027Y1018767D1*
X1856342Y1027987D1*
X1854323Y1037009D1*
X1851011Y1045640D1*
X1846478Y1053698D1*
X1840819Y1061009D1*
X1834157Y1067419D1*
X1826632Y1072790D1*
X1818406Y1077009D1*
X1809653Y1079985D1*
X1800560Y1081654D1*
X1791320Y1081982D1*
X1782132Y1080961D1*
X1773190Y1078614D1*
X1764685Y1074989D1*
X1756798Y1070164D1*
X1749698Y1064243D1*
X1743536Y1057351D1*
X1741553Y1054626D1*
X1571085Y1054621D1*
X1392125Y1233573D1*
X1392119Y1738057D1*
X1390785Y1747121D1*
X1387202Y1755553D1*
X1381648Y1762760D1*
X1382125Y1768733D1*
X1381379Y1777912D1*
X1379170Y1786852D1*
X1375555Y1795323D1*
X1370629Y1803104D1*
X1364518Y1809993D1*
X1360831Y1813000D1*
X1360828Y1835021D1*
X1502964Y1977164D1*
X1526655Y1977168D1*
X1531130Y1972303D1*
X1538356Y1966676D1*
X1546409Y1962314D1*
X1555070Y1959338D1*
X1564103Y1957828D1*
X1573262Y1957825D1*
X1582296Y1959329D1*
X1590959Y1962300D1*
X1599015Y1966657D1*
X1606245Y1972280D1*
X1612450Y1979016D1*
X1617461Y1986682D1*
X1621143Y1995068D1*
X1623394Y2003945D1*
X1624153Y2013090D1*
X1623400Y2022200D1*
X1621154Y2031079D1*
X1617478Y2039467D1*
X1612471Y2047136D1*
X1606270Y2053876D1*
X1599044Y2059504D1*
X1590991Y2063865D1*
X1582330Y2066842D1*
X1573297Y2068352D1*
X1564138Y2068355D1*
X1555104Y2066850D1*
X1546441Y2063879D1*
X1538385Y2059523D1*
X1531155Y2053900D1*
X1526653Y2049012D1*
X1488090Y2049015D1*
X1485465Y2048919D1*
X1476488Y2047090D1*
X1468259Y2043045D1*
X1462672Y2038478D1*
X1299498Y1875304D1*
X1297709Y1873380D1*
X1297126Y1872681D1*
X1297128Y1942836D1*
X1551188Y2196893D1*
X1555070Y2195558D1*
X1564103Y2194048D1*
X1573262Y2194045D1*
X1582296Y2195550D1*
X1590959Y2198521D1*
X1595514Y2200984D1*
X1627774Y2168713D1*
X1627771Y1973149D1*
X1439761Y1785139D1*
X1434066Y1778003D1*
X1430082Y1769747D1*
X1428035Y1760803D1*
X1427774Y1756177D1*
Y1332339D1*
X1428793Y1323266D1*
X1431813Y1314611D1*
X1436691Y1306839D1*
X1439777Y1303385D1*
X1503400Y1239761D1*
X1510536Y1234066D1*
X1518792Y1230082D1*
X1527736Y1228035D1*
X1532362Y1227774D1*
X1667384Y1227769D1*
X1682343Y1226749D1*
Y1206160D1*
X1805060D1*
X1805059Y1227774D1*
X1818700D1*
X1827773Y1228793D1*
X1836428Y1231813D1*
X1844200Y1236691D1*
X2618700Y1226082D2*
D17*
X2676126Y1168656D1*
Y1283508D2*
X2561274Y1168656D1*
X2361318Y1281200D2*
X2418744Y1338626D1*
X2303892D2*
X2418744Y1223774D1*
X2336274Y1833506D2*
X2451129Y1718658D1*
X2451126Y1833509D2*
X2336277Y1718655D1*
X2098774Y1658508D2*
X2213626Y1543656D1*
Y1658508D2*
X2156200Y1601082D1*
X1743699Y1373818D2*
X1801124Y1431245D1*
X2859721Y1205095D2*
X2898424Y1243798D1*
X2859721Y1282502D2*
X2937128Y1205095D1*
X1856156Y1223774D2*
X1913582Y1281200D1*
X2813626Y1168656D2*
X2698774Y1283508D1*
Y1168656D2*
X2813626Y1283508D1*
X1883508Y2338626D2*
X1826082Y2281200D1*
X1768656Y2338626D1*
D18*
X2018700Y549951D3*
X1818700D3*
X1718700D3*
X1618700D3*
X1518700D3*
X2918700D3*
X2818700D3*
X2718700D3*
X2618700D3*
X2518700D3*
X2418700D3*
X2056700Y2449951D3*
X1956700D3*
X1856700D3*
X1756700D3*
X1656700D3*
X1556700D3*
X1456700D3*
X1355700D3*
X1256700D3*
X1156700D3*
X2918700D3*
X2818700D3*
X2718700D3*
X2618700D3*
X2518700D3*
X2418700D3*
X2318700D3*
X2218700D3*
X1918700Y549951D3*
X2218700D3*
X2118700D3*
D19*
X1579822Y1110472D3*
X1532578Y1401928D3*
D20*
X2618700Y1336318D3*
Y1226082D3*
D21*
X2718700Y818700D3*
Y1018700D3*
D22*
X2251082Y1281200D3*
X2361318D3*
D20*
X2393699Y1886318D3*
X2393701Y1776082D3*
X2156200Y1711318D3*
Y1601082D3*
D19*
X1845078Y1876751D3*
X1892322Y1685649D3*
D20*
X1743701Y1263582D3*
X1743699Y1373818D3*
D23*
X1737499Y1768700D3*
X1324901D3*
D22*
X2038582Y2281200D3*
X2148818D3*
D24*
X2688088Y2148126D3*
X2924308Y2148133D3*
D25*
X2806204Y1955216D3*
D26*
X1568700Y2013090D3*
Y2249310D3*
D27*
X2531200Y706200D3*
X2131200D3*
D28*
X1793700Y918700D3*
Y1018700D3*
Y1118700D3*
D29*
X1393798Y785924D3*
X1468602D3*
X1431200Y876476D3*
D30*
X2448424Y2156100D3*
X2448426Y2081297D3*
X2538976Y2118701D3*
X2898424Y1318602D3*
Y1243798D3*
X2988976Y1281200D3*
D29*
X1943800Y1873423D3*
X2018603Y1873426D3*
X1981198Y1963976D3*
D22*
X1563582Y793700D3*
X1673818D3*
X2288582Y2281198D3*
X2398818Y2281202D3*
X1913582Y1281200D3*
X2023818D3*
D31*
X1831200Y1306196D3*
X2131200Y1306204D3*
D20*
Y1498818D3*
Y1388582D3*
D32*
X2331200Y2068707D3*
X1931200Y2068693D3*
D22*
X2076082Y2056200D3*
X2186318D3*
D31*
X2568700Y1943700D3*
X2268700D3*
D22*
X2736318Y1468701D3*
X2626082Y1468699D3*
D20*
X2756200Y1226082D3*
Y1336318D3*
D22*
X2998818Y1131201D3*
X2888582Y1131199D3*
X1936318Y2281200D3*
X1826082D3*
D26*
X2405413Y1629625D3*
X2306987Y1531200D3*
X2405413Y1432775D3*
D31*
X1968700Y1818696D3*
X2268700Y1818704D3*
D20*
X2543700Y2226082D3*
Y2336318D3*
X2581200Y1688582D3*
Y1798818D3*
D68*
X1962992Y1493799D3*
X1962991Y1531201D3*
Y1568602D3*
D71*
X1874408Y1568601D3*
X1874409Y1531199D3*
Y1493798D3*
G04 Top Clear*
%LPC*%
D14*
X2018700Y549951D3*
X1818700D3*
X1718700D3*
X1618700D3*
X1518700D3*
X2918700D3*
X2818700D3*
X2718700D3*
X2618700D3*
X2518700D3*
X2418700D3*
X2056700Y2449951D3*
X1956700D3*
X1856700D3*
X1756700D3*
X1656700D3*
X1556700D3*
X1456700D3*
X1355700D3*
X1256700D3*
X1156700D3*
X2918700D3*
X2818700D3*
X2718700D3*
X2618700D3*
X2518700D3*
X2418700D3*
X2318700D3*
X2218700D3*
X1918700Y549951D3*
X2218700D3*
X2118700D3*
X1579822Y1110472D3*
X1532578Y1401928D3*
X2718700Y818700D3*
Y1018700D3*
X1845078Y1876751D3*
X1892322Y1685649D3*
X1737499Y1768700D3*
X1324901D3*
X2688090Y2084228D2*
X2688086Y2212023D1*
X2924310Y2084235D2*
X2924306Y2212030D1*
X2742306Y1955214D2*
X2870101Y1955218D1*
X1568700Y2013090D3*
Y2249310D3*
X2531200Y706200D3*
X2131200D3*
X1793700Y918700D3*
Y1018700D3*
Y1118700D3*
X1831200Y1306196D3*
X2131200Y1306204D3*
X2331200Y2068707D3*
X1931200Y2068693D3*
X2568700Y1943700D3*
X2268700D3*
X2405413Y1629625D3*
X2306987Y1531200D3*
X2405413Y1432775D3*
X1968700Y1818696D3*
X2268700Y1818704D3*
M02*
